<svg width="512" height="512" viewBox="0 0 512 512" fill="none" xmlns="http://www.w3.org/2000/svg">
<g clip-path="url(#clip0_10_553)">
<path d="M302.925 41.3711C288.18 36.6883 272.046 34 255.653 34C208.381 34 165.793 55.4195 137.256 89.3266L210.376 150.723L302.925 41.3711Z" fill="#1A73E8"/>
<path d="M137.256 89.3267C114.791 116.123 101 151.07 101 188.62C101 217.757 106.725 241.258 116.439 262.417L210.376 150.724L137.256 89.3267Z" fill="#EA4335"/>
<path d="M256 129.564C288.873 129.564 315.328 156.013 315.328 188.88C315.328 203.275 309.951 216.716 301.277 227.123C301.277 227.123 347.942 171.449 393.479 117.423C374.657 81.175 342.13 53.6852 302.925 41.2844L210.376 150.723C221.478 137.976 237.525 129.564 256 129.564Z" fill="#4285F4"/>
<path d="M256 247.935C223.127 247.935 196.672 221.486 196.672 188.619C196.672 174.224 201.702 160.783 210.463 150.723L116.439 262.33C132.573 297.885 159.375 326.676 186.87 362.577L301.277 226.776C290.175 239.87 274.128 247.935 256 247.935Z" fill="#FBBC04"/>
<path d="M299.282 400.213C350.978 319.392 411 282.883 411 188.967C411 163.124 404.668 139.017 393.566 117.51L186.87 362.664C195.631 374.024 204.651 387.119 213.325 400.56C244.898 449.21 236.137 478 256.26 478C276.383 478 267.709 448.863 299.282 400.213Z" fill="#34A853"/>
</g>
<defs>
<clipPath id="clip0_10_553">
<rect width="310" height="444" fill="white" transform="translate(101 34)"/>
</clipPath>
</defs>
</svg>
